<svg width="213" height="44" viewBox="0 0 213 44" fill="none" xmlns="http://www.w3.org/2000/svg">
<g clip-path="url(#clip0_19975_162)">
<path d="M75.1843 25.3428L73.9148 28.8218H73.809C73.5974 28.0374 73.2095 26.8436 72.5747 25.411L65.7686 8.86836H59.1035V35.2343H63.5116V18.9645C63.5116 17.9412 63.5116 16.7815 63.4764 15.349C63.4411 14.6327 63.3706 14.087 63.3353 13.6777H63.4411C63.6527 14.7009 63.8995 15.4513 64.0759 15.9288L72.2573 35.166H75.3606L83.4716 15.7583C83.6479 15.3149 83.8242 14.428 84.0005 13.6777H84.1063C84.0005 15.6218 83.93 17.3614 83.8947 18.4187V35.1319H88.585V8.80014H82.1668L75.1843 25.3428V25.3428ZM93.0283 16.2358H97.6128V35.1319H93.0283V16.2358ZM95.3558 8.25441C94.58 8.25441 93.9452 8.52727 93.4163 9.00479C92.8873 9.48231 92.6052 10.0963 92.6052 10.8467C92.6052 11.5629 92.8873 12.1769 93.4163 12.6544C93.9452 13.1319 94.58 13.3707 95.3558 13.3707C96.1317 13.3707 96.8017 13.0978 97.2954 12.6544C97.8244 12.1769 98.1065 11.5629 98.1065 10.8467C98.1065 10.1304 97.8244 9.51642 97.2954 9.00479C96.837 8.52727 96.1669 8.25441 95.3558 8.25441V8.25441ZM113.87 16.0653C113.024 15.8947 112.142 15.7924 111.296 15.7924C109.215 15.7924 107.311 16.2358 105.724 17.1226C104.137 18.0094 102.867 19.2374 102.056 20.7722C101.21 22.3412 100.787 24.149 100.787 26.2296C100.787 28.0374 101.21 29.6405 102.021 31.1071C102.832 32.5397 103.96 33.6994 105.477 34.4839C106.923 35.2684 108.615 35.6777 110.52 35.6777C112.706 35.6777 114.575 35.2343 116.056 34.4156L116.092 34.3815V30.2885L115.915 30.4249C115.245 30.9025 114.469 31.3118 113.694 31.5505C112.882 31.8234 112.142 31.9598 111.507 31.9598C109.673 31.9598 108.228 31.4482 107.205 30.3226C106.147 29.2312 105.618 27.7304 105.618 25.8544C105.618 23.9102 106.147 22.3753 107.24 21.2498C108.333 20.1242 109.779 19.5443 111.542 19.5443C113.024 19.5443 114.54 20.0218 115.915 20.9769L116.092 21.1133V16.7815L116.056 16.7474C115.457 16.5087 114.787 16.2358 113.87 16.0653V16.0653ZM128.999 15.9288C127.87 15.9288 126.812 16.2699 125.895 16.9862C125.119 17.6001 124.59 18.487 124.132 19.5443H124.097V16.2358H119.512V35.1319H124.097V25.4792C124.097 23.842 124.449 22.4777 125.225 21.4885C126.001 20.4653 126.988 19.9536 128.187 19.9536C128.611 19.9536 129.034 20.056 129.563 20.1242C130.056 20.2606 130.409 20.397 130.656 20.5676L130.832 20.704V16.2699L130.727 16.2358C130.409 16.0311 129.774 15.9288 128.999 15.9288V15.9288ZM141.482 15.8265C138.273 15.8265 135.699 16.7474 133.9 18.5552C132.067 20.3629 131.185 22.8529 131.185 25.9908C131.185 28.9242 132.102 31.3118 133.865 33.0513C135.628 34.7567 138.026 35.6436 141.024 35.6436C144.162 35.6436 146.666 34.7226 148.465 32.8808C150.299 31.0389 151.18 28.5831 151.18 25.5474C151.18 22.5459 150.334 20.1583 148.606 18.4187C146.948 16.6792 144.515 15.8265 141.482 15.8265V15.8265ZM145.15 30.3567C144.304 31.4141 142.963 31.9257 141.306 31.9257C139.649 31.9257 138.308 31.4141 137.356 30.2885C136.404 29.2312 135.946 27.6963 135.946 25.7521C135.946 23.7397 136.439 22.2048 137.356 21.1133C138.308 20.0218 139.613 19.4761 141.271 19.4761C142.893 19.4761 144.162 19.9877 145.079 21.0451C145.996 22.1025 146.49 23.6374 146.49 25.6498C146.419 27.6963 146.032 29.2994 145.15 30.3567V30.3567ZM161.407 24.0808C159.961 23.5009 159.044 23.0575 158.621 22.6823C158.268 22.3412 158.092 21.8637 158.092 21.2498C158.092 20.7381 158.304 20.2265 158.833 19.8854C159.362 19.5443 159.961 19.3738 160.843 19.3738C161.619 19.3738 162.43 19.5102 163.206 19.7149C163.981 19.9195 164.687 20.2265 165.251 20.6358L165.427 20.7722V16.611L165.321 16.5769C164.792 16.3722 164.087 16.1676 163.241 15.997C162.394 15.8606 161.619 15.7924 160.984 15.7924C158.797 15.7924 156.999 16.304 155.588 17.4296C154.178 18.487 153.508 19.9195 153.508 21.5908C153.508 22.4777 153.649 23.2622 153.966 23.9102C154.283 24.5583 154.742 25.1722 155.377 25.6839C156.011 26.1614 156.928 26.7071 158.198 27.2187C159.256 27.6622 160.067 28.0032 160.561 28.2761C161.054 28.549 161.372 28.856 161.619 29.0947C161.795 29.3676 161.901 29.7087 161.901 30.1521C161.901 31.4141 160.913 32.028 158.903 32.028C158.127 32.028 157.316 31.8916 156.364 31.5846C155.412 31.2777 154.53 30.8343 153.79 30.3226L153.613 30.1862V34.518L153.719 34.5521C154.389 34.8591 155.2 35.0637 156.188 35.3025C157.175 35.473 158.057 35.6094 158.833 35.6094C161.195 35.6094 163.135 35.0978 164.51 33.9722C165.921 32.8808 166.661 31.4823 166.661 29.6746C166.661 28.4125 166.309 27.287 165.533 26.4343C164.51 25.6156 163.241 24.7629 161.407 24.0808V24.0808ZM178.757 15.8265C175.548 15.8265 172.974 16.7474 171.175 18.5552C169.377 20.3629 168.46 22.8529 168.46 25.9908C168.46 28.9242 169.377 31.3118 171.14 33.0513C172.903 34.7567 175.301 35.6436 178.299 35.6436C181.437 35.6436 183.941 34.7226 185.74 32.8808C187.574 31.0389 188.455 28.5831 188.455 25.5474C188.455 22.5459 187.609 20.1583 185.881 18.4187C184.223 16.6792 181.79 15.8265 178.757 15.8265V15.8265ZM182.39 30.3567C181.543 31.4141 180.203 31.9257 178.546 31.9257C176.853 31.9257 175.548 31.4141 174.596 30.2885C173.644 29.2312 173.185 27.6963 173.185 25.7521C173.185 23.7397 173.679 22.2048 174.596 21.1133C175.548 20.0218 176.853 19.4761 178.51 19.4761C180.097 19.4761 181.402 19.9877 182.319 21.0451C183.236 22.1025 183.73 23.6374 183.73 25.6498C183.73 27.6963 183.271 29.2994 182.39 30.3567V30.3567ZM212.964 19.8854V16.2358H208.345V10.642L208.204 10.6761L203.831 11.9381L203.725 11.9722V16.2358H196.813V13.8482C196.813 12.7567 197.095 11.904 197.589 11.3583C198.082 10.8125 198.823 10.5397 199.74 10.5397C200.375 10.5397 201.045 10.6761 201.785 10.9831L201.962 11.0854V7.23115L201.856 7.19704C201.221 6.99239 200.375 6.85596 199.281 6.85596C197.906 6.85596 196.707 7.16293 195.614 7.67456C194.521 8.25441 193.71 9.0389 193.11 10.0963C192.511 11.1195 192.193 12.2792 192.193 13.6094V16.2358H188.984V19.8513H192.193V35.1319H196.813V19.8854H203.725V29.6063C203.725 33.597 205.664 35.6094 209.544 35.6094C210.178 35.6094 210.848 35.5071 211.483 35.4048C212.153 35.2684 212.647 35.0978 212.929 34.9614L212.964 34.9273V31.2777L212.788 31.4141C212.506 31.5846 212.259 31.7211 211.836 31.8234C211.483 31.9257 211.166 31.9598 210.919 31.9598C210.002 31.9598 209.367 31.7552 208.909 31.2436C208.486 30.766 208.274 29.9815 208.274 28.8218V19.8854H212.964V19.8854Z" fill="#737373"/>
<path d="M0 0H21.6174V20.9085H0V0Z" fill="#F25022"/>
<path d="M23.874 0H45.4914V20.9085H23.874V0Z" fill="#7FBA00"/>
<path d="M0 23.0913H21.6174V43.9998H0V23.0913Z" fill="#00A4EF"/>
<path d="M23.874 23.0913H45.4914V43.9998H23.874V23.0913Z" fill="#FFB900"/>
</g>
<defs>
<clipPath id="clip0_19975_162">
<rect width="213" height="44" fill="white"/>
</clipPath>
</defs>
</svg>
